<svg xmlns="http://www.w3.org/2000/svg" viewBox="0 0 277.44 277.44"><defs><style>.cls-1,.cls-3{fill:#414042;}.cls-2{fill:none;}.cls-2,.cls-3{stroke:#231f20;stroke-miterlimit:10;}</style></defs><g id="Layer_2" data-name="Layer 2"><g id="Layer_1-2" data-name="Layer 1"><g id="Layer_2-2" data-name="Layer 2"><path class="cls-1" d="M3,154.76a3,3,0,0,1,.08.41l0-.27a5.17,5.17,0,0,1,0,.68.69.69,0,0,0,.08.38.72.72,0,0,0,.21.33.83.83,0,0,0,.32.2.75.75,0,0,0,.39.09l.26,0a.92.92,0,0,0,.44-.25l.16-.21a1,1,0,0,0,.14-.5,5.24,5.24,0,0,0,0-.56,7.22,7.22,0,0,0-.13-.79.75.75,0,0,0-.18-.34.78.78,0,0,0-.28-.26.81.81,0,0,0-.37-.12.9.9,0,0,0-.4,0,1.06,1.06,0,0,0-.6.46l-.1.24a1.19,1.19,0,0,0,0,.53Z"/><path class="cls-1" d="M2.8,154.16a9.42,9.42,0,0,0,.66,1.53c.19.35.43.64.33,1.05s-.33.93-.43,1.42a12.22,12.22,0,0,0-.16,1.71c0,1.15,0,2.31.06,3.47a13.05,13.05,0,0,0,.44,3.35c.39,1.22,2.32.7,1.92-.53a13.54,13.54,0,0,1-.39-3.3c-.05-1.14-.07-2.3,0-3.44a5.53,5.53,0,0,1,.3-1.56,3.63,3.63,0,0,0,.31-1.45c0-1-.79-1.84-1.1-2.78-.41-1.21-2.35-.69-1.93.53Z"/><path class="cls-1" d="M3.83,167.11v0a.86.86,0,0,0,.09.39.75.75,0,0,0,.21.32.69.69,0,0,0,.32.21.73.73,0,0,0,.38.08l.27,0a1,1,0,0,0,.44-.26l.16-.2a1,1,0,0,0,.13-.51v0a1,1,0,0,0-.29-.71.75.75,0,0,0-.32-.21.74.74,0,0,0-.39-.08l-.26,0a1,1,0,0,0-.44.26l-.16.2a1,1,0,0,0-.14.51Z"/><path class="cls-1" d="M.76,151.06a46.85,46.85,0,0,1,2.08,4.35,9.3,9.3,0,0,1,.57,2.19A8,8,0,0,1,3.56,160a1,1,0,0,0,.69,1.23,1,1,0,0,0,1.23-.7,8.94,8.94,0,0,0,0-2.78A11.28,11.28,0,0,0,4.83,155a46.06,46.06,0,0,0-2.34-5c-.61-1.14-2.33-.13-1.73,1Z"/><path class="cls-1" d="M4.25,158.74c.39.28.33.55.25.19l-.09-.4-.15-.67-.34-1.47-.67-2.94a1,1,0,0,0-1.23-.7,1,1,0,0,0-.7,1.23l.75,3.28.36,1.58a2.36,2.36,0,0,0,.81,1.63,1,1,0,0,0,1.37-.36,1,1,0,0,0-.36-1.37Z"/><path class="cls-1" d="M5.31,157.19a1,1,0,0,0,0-2,1,1,0,0,0,0,2Z"/><path class="cls-1" d="M72.83,247.2c7.35,4,13.86,9.51,21.44,13.14,7.77,3.73,15.93,5.5,24.36,7,4.78.86,9.7-1.3,11.07-6.29,1.2-4.36-1.47-10.2-6.28-11.07-7.3-1.32-15-2.51-21.62-6-6.93-3.61-13-8.6-19.89-12.36-10.16-5.58-19.25,10-9.08,15.54Z"/><path class="cls-1" d="M104.13,270.1c11.58,0,11.6-18,0-18s-11.6,18,0,18Z"/><path class="cls-1" d="M100.13,268.91c11.58,0,11.6-18,0-18s-11.6,18,0,18Z"/><path class="cls-1" d="M96.65,249.73h-.08a6.74,6.74,0,0,0-3.46.77,6.9,6.9,0,0,0-2.9,1.86,6.71,6.71,0,0,0-1.86,2.9,6.89,6.89,0,0,0-.78,3.47l.33,2.39a8.82,8.82,0,0,0,2.31,4L92,266.5a9.07,9.07,0,0,0,4.54,1.23h.08a6.81,6.81,0,0,0,3.47-.78,8.11,8.11,0,0,0,4.75-4.75,6.81,6.81,0,0,0,.78-3.47l-.32-2.39a9,9,0,0,0-2.32-4l-1.82-1.4a8.85,8.85,0,0,0-4.54-1.23Z"/><path class="cls-1" d="M97.5,250l-3-.84a8.53,8.53,0,0,0-2.36-.67c-.59-.19-.4-.09.59.32a12.54,12.54,0,0,1-1.35-.74c-.44-.27-.86-.57-1.28-.88.81.61.81.6,0-.05-3.6-3-9.23-3.8-12.72,0-3.06,3.33-3.86,9.51,0,12.73a31.27,31.27,0,0,0,8,5.24,60.71,60.71,0,0,0,7.28,2.25c4.53,1.27,10-1.56,11.07-6.29A9.17,9.17,0,0,0,97.5,250Z"/><path class="cls-1" d="M82,262.39c11.58,0,11.6-18,0-18s-11.6,18,0,18Z"/><path class="cls-1" d="M79.46,259.43c11.59,0,11.6-18,0-18s-11.6,18,0,18Z"/><path class="cls-1" d="M78.28,258.1c11.58,0,11.6-18,0-18s-11.6,18,0,18Z"/><path class="cls-1" d="M76.06,256.32c11.58,0,11.6-18,0-18s-11.61,18,0,18Z"/><path class="cls-1" d="M71.61,250c11.58,0,11.6-18,0-18s-11.6,18,0,18Z"/><path class="cls-1" d="M72.35,251.8h.08a6.74,6.74,0,0,0,3.46-.77,6.9,6.9,0,0,0,2.9-1.86,6.71,6.71,0,0,0,1.86-2.9,6.89,6.89,0,0,0,.78-3.47l-.33-2.39a8.82,8.82,0,0,0-2.31-4L77,235a9.07,9.07,0,0,0-4.54-1.23h-.08a6.81,6.81,0,0,0-3.47.78,8.11,8.11,0,0,0-4.75,4.75,6.81,6.81,0,0,0-.78,3.47l.32,2.39a9,9,0,0,0,2.32,4l1.82,1.4a8.85,8.85,0,0,0,4.54,1.23Z"/><path class="cls-1" d="M78.94,244c11.59,0,11.61-18,0-18s-11.6,18,0,18Z"/><path class="cls-1" d="M76.57,245.43c11.59,0,11.61-18,0-18s-11.6,18,0,18Z"/><path class="cls-1" d="M75.17,246.32c11.58,0,11.6-18,0-18s-11.6,18,0,18Z"/><path class="cls-1" d="M66.8,243.82a8.31,8.31,0,0,0-2.11-3.32c-.2-.18-.41-.33-.61-.5l-.23-.21c-.25-.25.29.44,0,0a4.83,4.83,0,0,0-.58-.84,2.9,2.9,0,0,0-1.26-.8,2,2,0,0,0-2.26,2.94A2.34,2.34,0,0,0,61,242a3.56,3.56,0,0,0,3.73-.87,5.24,5.24,0,0,0,.9-1.37c.09-.17.18-.34.29-.51s-.34.43-.06.11c.11-.1,0-.05-.22.17l.16-.09-.48.2.09,0a2.21,2.21,0,0,0,1.2-.92,2,2,0,0,0-2.26-2.94,3.63,3.63,0,0,0-1.39.85,4.76,4.76,0,0,0-.72,1c-.13.24-.24.5-.38.73,0,.06-.08.12-.11.17.21-.38.2-.28.08-.13s.34-.22.18-.15l-.21.11.48-.2a1.83,1.83,0,0,1-.46.12l.54-.07a2.41,2.41,0,0,1-.38,0l.53.07a1.76,1.76,0,0,1-.45-.12L61,242l.07,0-.48-.21c.29.15-.36-.34-.15-.12-.41-.43-.22-.29-.12-.13a3.91,3.91,0,0,0,.26.44,5.85,5.85,0,0,0,1.16,1.17c.16.14.31.29.46.45l.21.24c.24.27-.26-.38,0-.06A7.67,7.67,0,0,1,63,245l-.2-.48.15.4a2.1,2.1,0,0,0,.92,1.19,2,2,0,0,0,2.94-2.26Z"/><path class="cls-1" d="M63,241.1c2.57,0,2.58-4,0-4s-2.58,4,0,4Z"/><path class="cls-1" d="M103.44,270.56a71,71,0,0,0,9,2.56c1.53.32,3.08.61,4.64.8a5.32,5.32,0,0,0,4.22-1.07,2,2,0,0,0,0-2.83,2,2,0,0,0-2.82,0c.27-.22-.25,0,0,0a5.45,5.45,0,0,1-.7,0,12.46,12.46,0,0,1-1.59-.22c-1.29-.22-2.58-.48-3.86-.77a69.16,69.16,0,0,1-7.85-2.3,2,2,0,0,0-1.07,3.86Z"/><path class="cls-1" d="M108.39,268.59q9.1,0,18.22-.37c2.56-.11,2.58-4.11,0-4q-9.1.4-18.22.37c-2.58,0-2.58,4,0,4Z"/><path class="cls-1" d="M110.28,270.37l15,.49a2,2,0,0,0,0-4l-15-.49a2,2,0,1,0,0,4Z"/><path class="cls-1" d="M121.36,272.25c6.93-.93,13.46-3.08,20.11-5.19,2.45-.77,1.4-4.63-1.06-3.85-6.28,2-12.5,4.16-19,5a2.06,2.06,0,0,0-2,2,2,2,0,0,0,2,2Z"/><path class="cls-1" d="M142.2,262.53a77.56,77.56,0,0,1-3.8-9.14c-1-3.17-2-6.38-3-9.57-.75-2.45-4.61-1.4-3.86,1.07,1,3.3,2,6.63,3.07,9.91a88.48,88.48,0,0,0,4.09,9.75,2,2,0,0,0,2.73.72,2.05,2.05,0,0,0,.72-2.74Z"/><path class="cls-1" d="M138,261.88a123.8,123.8,0,0,0-14.2,4.49,2.06,2.06,0,0,0-1.4,2.46,2,2,0,0,0,2.46,1.4,123.8,123.8,0,0,1,14.2-4.49,2,2,0,1,0-1.06-3.86Z"/><path class="cls-1" d="M122.17,272.8c2.57,0,2.57-4,0-4s-2.58,4,0,4Z"/><path class="cls-1" d="M123.72,272.25c2.58,0,2.58-4,0-4s-2.58,4,0,4Z"/><path class="cls-1" d="M76.21,229.16a1.67,1.67,0,0,1,.08-.2l-.21.48a5,5,0,0,1,.59-1l-.32.41a4.84,4.84,0,0,1,.81-.82l-.4.32a7.14,7.14,0,0,0,2.14-2,2.12,2.12,0,0,0,.2-1.54,2.06,2.06,0,0,0-.92-1.2,2,2,0,0,0-1.54-.2,2.09,2.09,0,0,0-1.2.92,1,1,0,0,1-.16.24l.32-.4a3.17,3.17,0,0,1-.5.47l.41-.31a11.81,11.81,0,0,0-1.75,1.4,7.78,7.78,0,0,0-.82,1.07,8.6,8.6,0,0,0-.59,1.27,1.67,1.67,0,0,0,0,.8,1.62,1.62,0,0,0,.24.74,2,2,0,0,0,2.74.72l.4-.31a2.08,2.08,0,0,0,.52-.88Z"/><path class="cls-1" d="M78.83,228.58c2.58,0,2.58-4,0-4s-2.57,4,0,4Z"/><path class="cls-1" d="M79.5,229c2.57,0,2.58-4,0-4s-2.58,4,0,4Z"/><path class="cls-1" d="M85.84,236.12c1.62,3.6,4.23,5.29,7.74,6.78,4.69,2,9,4.61,13.85,6.09,4.57,1.39,9.32,2,13.93,3.2a7.57,7.57,0,0,1,5.3,4,10.1,10.1,0,0,1,1.4,4.11c.08.68-.33,2.71.54,2.1l2.69-.36-1-.18.84,6.4c2.12-1.56,5-3,6.71-5a3.67,3.67,0,0,0,.55-4.24c-1-2.1-2.59-3.1-3.22-5.55-.72-2.79-1-5.8-1.44-8.64a3.52,3.52,0,0,0-4.3-2.45c-7,2.19-17.22-2.24-23.9-4.48A60.57,60.57,0,0,1,95,233.68c-1.34-.75-2.58-1.67-4-2.32s-3.65-.84-4.68-1.94l-2.48,6,1,.36c4.16,1.73,6-5,1.86-6.75a9,9,0,0,0-2.87-.61c-3.2-.32-4.37,4-2.47,6,2.41,2.57,6.43,3.15,9.42,4.94,4,2.4,8.45,3.82,12.86,5.29,8.17,2.74,19,7.17,27.62,4.48L127,246.64a101.73,101.73,0,0,0,1.73,10.14c.69,2.51,2.62,3.6,3.64,5.72l.54-4.24c-1.33,1.55-3.65,2.73-5.3,3.94-2.15,1.59-2.43,5.8.84,6.4,5,.92,6.86-2.87,6.69-7.35-.2-5.14-2.65-11.08-7.08-14.06-4.62-3.1-11.87-3.05-17.16-4.49a46.7,46.7,0,0,1-10-4.15c-3.28-1.75-7.43-2.31-9.06-6-1.84-4.11-7.87-.55-6,3.53Z"/><path class="cls-1" d="M121.83,248.75c4.51,0,4.51-7,0-7s-4.51,7,0,7Z"/><path class="cls-1" d="M124.72,249.3c4.51,0,4.51-7,0-7s-4.51,7,0,7Z"/><path class="cls-1" d="M127.72,249.19c4.51,0,4.51-7,0-7s-4.51,7,0,7Z"/><path class="cls-1" d="M244.28,225.91a3.25,3.25,0,0,0-.45.07l-.09,0-.32.13-.17.11a1.81,1.81,0,0,0-.34.28.75.75,0,0,0-.21.32.86.86,0,0,0-.09.39.82.82,0,0,0,.09.38.69.69,0,0,0,.21.32l.2.16a1,1,0,0,0,.5.14l.27,0a1,1,0,0,0,.44-.26.69.69,0,0,1,.13-.11l-.21.16a1.28,1.28,0,0,1,.25-.15l-.24.1a.9.9,0,0,1,.27-.07l-.26,0h0a.63.63,0,0,0,.38-.09.76.76,0,0,0,.32-.2.75.75,0,0,0,.21-.32.86.86,0,0,0,.09-.39l0-.27a1,1,0,0,0-.26-.44l-.2-.15a1,1,0,0,0-.5-.14Z"/><path class="cls-1" d="M243.08,226.59c-1.73.67-2.63,2.26-4.13,3.24a5.49,5.49,0,0,0-2,1.95,12,12,0,0,1-1.56,2.41,45.08,45.08,0,0,0-3.9,3.92,10.52,10.52,0,0,1-.91,1.2,14.15,14.15,0,0,1-1.11.91c-.74.62-1.23,1.52-2,2.08-1,.73,0,2.47,1,1.72a14.18,14.18,0,0,0,2-2,22.93,22.93,0,0,0,2-1.9,17.61,17.61,0,0,1,1.78-2.16c.66-.65,1.37-1.24,2-1.88a10.49,10.49,0,0,0,1.68-2,6.69,6.69,0,0,1,1.64-2.34,13.43,13.43,0,0,0,2-1.59,6.06,6.06,0,0,1,2-1.64c1.19-.45.68-2.39-.53-1.93Z"/><path class="cls-1" d="M230.74,240.71a12.19,12.19,0,0,0,1.85-2.79,18.8,18.8,0,0,1,1.9-2.79,48.47,48.47,0,0,0,4.19-5.51,1,1,0,0,0-1.72-1,46.19,46.19,0,0,1-4,5.24A23.83,23.83,0,0,0,231,236.6a12.41,12.41,0,0,1-1.7,2.7c-.91.91.51,2.33,1.41,1.41Z"/><path class="cls-1" d="M235.93,234.9c.36-.43.71-.87,1.08-1.29a7.55,7.55,0,0,1,1.11-1.15l-.21.15a2.33,2.33,0,0,1,.34-.2l-.24.1.09,0a1,1,0,0,0,.59-.46,1,1,0,0,0,.1-.77,1,1,0,0,0-.46-.6,1,1,0,0,0-.77-.1,3.14,3.14,0,0,0-1.09.7c-.23.22-.44.46-.66.7-.44.5-.87,1-1.29,1.53a1.08,1.08,0,0,0-.3.71,1,1,0,0,0,.3.71,1,1,0,0,0,.7.29,1,1,0,0,0,.71-.29Z"/><path class="cls-1" d="M237.83,234.76a7.26,7.26,0,0,0,1.36-1,11.92,11.92,0,0,1,1-1c.09-.08-.18.13,0,0l.15-.11.25-.18.53-.38a4.85,4.85,0,0,0,1.18-1.21,1,1,0,0,0-1.73-1,1.3,1.3,0,0,0-.1.15s.14-.16.05-.06l-.22.23-.23.2-.11.09c.17-.18.08-.06,0,0-.39.28-.78.54-1.16.84a8.62,8.62,0,0,0-.93,1,1.88,1.88,0,0,1-.25.24l-.13.12c-.09.08.16-.12,0,0a6.9,6.9,0,0,1-.63.42,1,1,0,0,0,1,1.73Z"/><path class="cls-1" d="M240.82,227.93l-5.23,3a1,1,0,0,0,1,1.73l5.23-3a1,1,0,1,0-1-1.72Z"/><path class="cls-1" d="M239.45,230.5l.19-.09-.23.1a6.69,6.69,0,0,1,1.47-.42,1.08,1.08,0,0,0,.59-.46,1,1,0,0,0,.1-.77.94.94,0,0,0-.46-.59l-.23-.1a1,1,0,0,0-.54,0,7.12,7.12,0,0,0-1.9.6,1,1,0,0,0-.36,1.37,1,1,0,0,0,.6.46l.26,0a1,1,0,0,0,.51-.13Z"/><path class="cls-1" d="M240.33,230.19a1,1,0,0,0,0-2,1,1,0,0,0,0,2Z"/><path class="cls-1" d="M240.18,227.93l-.11.11a1,1,0,0,0-.29.71.73.73,0,0,0,.08.38.69.69,0,0,0,.21.32l.2.16a1,1,0,0,0,.51.14l.26,0a.94.94,0,0,0,.44-.26l.12-.11a.83.83,0,0,0,.2-.32.73.73,0,0,0,.09-.38.75.75,0,0,0-.09-.39.83.83,0,0,0-.2-.32l-.21-.16a1,1,0,0,0-.5-.13l-.27,0a1,1,0,0,0-.44.26Z"/><path class="cls-1" d="M276,120.14a21.49,21.49,0,0,1-1-4.19l.09.66c-.09-.65-.15-1.31-.18-2a2.64,2.64,0,0,0-.73-1.77,2.49,2.49,0,0,0-1.77-.73,2.51,2.51,0,0,0-2.5,2.5,24.46,24.46,0,0,0,1.27,6.83,2.68,2.68,0,0,0,1.14,1.5,2.6,2.6,0,0,0,1.93.25,2.55,2.55,0,0,0,1.5-1.15,2.5,2.5,0,0,0,.25-1.93Z"/><path class="cls-1" d="M272.28,122.91c3.22,0,3.22-5,0-5s-3.22,5,0,5Z"/><path class="cls-1" d="M272,123.75c3.22,0,3.22-5,0-5s-3.22,5,0,5Z"/><path class="cls-1" d="M272,121.75c3.22,0,3.22-5,0-5s-3.22,5,0,5Z"/><path class="cls-1" d="M274,112.63c-.26-2.19-1.51-4.08-2-6.22a22.42,22.42,0,0,1-.48-3.27c0-.56-.08-1.11-.11-1.67a2.71,2.71,0,0,0-.37-1.61,1,1,0,0,0-1.57-.2,1.5,1.5,0,0,0,.5,2.4c.69.41.63,1.6.71,2.31a33,33,0,0,1,0,6.81,1,1,0,0,0,1,1,1,1,0,0,0,1-1,33,33,0,0,0,0-6.21,17.49,17.49,0,0,0-.41-2.89,2.89,2.89,0,0,0-.44-1,2,2,0,0,0-.39-.43,2.8,2.8,0,0,0-.35-.25c-.24-.18-.27-.08-.1.3l-.26.44.1-.09-1.57-.2c.21.27.11.91.13,1.27q0,.78.12,1.56a25.51,25.51,0,0,0,.5,3.25,17.69,17.69,0,0,0,1,2.92,10.1,10.1,0,0,1,.93,2.76,1,1,0,0,0,1,1,1,1,0,0,0,1-1Z"/><path class="cls-1" d="M272,113.58c0-2,0-4,.12-6a1,1,0,1,0-2,0c-.14,2-.17,4-.12,6a1,1,0,0,0,2,0Z"/></g><circle class="cls-2" cx="138.72" cy="138.72" r="138.22"/><path class="cls-3" d="M208.2,114.31s25.93,13.49,36,28.6c0,0,.89,23.55-18,53.92,0,0-8.66,8.74-46.89,4.6,0,0-4.88-22.23-12-52.15C167.31,149.28,195.17,119.8,208.2,114.31Z"/><path class="cls-2" d="M208.2,114.31c3.11-30.22-15.26-58.07-15.26-58.07l24.89-16.63s37.23,18.89,51.11,60l2.22-.59-2.22.59c1.34,4.45.78,22.45.78,22.45-12,20.33-25.52,20.85-25.52,20.85"/><path class="cls-3" d="M269.72,122.06s7.22,16.66,7.22,16.22l-1.1-17.13"/><path class="cls-2" d="M275.84,121.15,271.16,99Z"/><path class="cls-3" d="M131.17,12.06s45-23.56,86.66,27.55L192.94,56.24s-14.33-17.07-54.22-20.85C138.72,35.39,132.5,11.28,131.17,12.06Z"/><path class="cls-2" d="M138.72,35.39s-33,18-47.33,40l-.92,1.7"/><path class="cls-2" d="M246.42,225.37l-10.14,3.69Z"/><path class="cls-2" d="M179.31,201.43s-19,37.47-45.14,40.74c-27.56,3.44-56.67-19.11-56.67-19.11L59.06,239.94s10.52,14.72,16.22,19.56,35.33,13.67,41.11,14.11,27-7.33,27-7.33c29.89,8.78,82.18-20,82.18-20l10.71-17.2c1.44-15.23-10.08-32.23-10.08-32.23"/><line class="cls-2" x1="134.17" y1="242.17" x2="143.39" y2="266.28"/><path class="cls-3" d="M103.11,128.89c0-.11-37.65,37.89-40.39,36.61-20.21-9.41-35.11-29.56-35.11-29.56,2.67-27.77,13.56-52.22,13.56-52.22,16.66-11.55,48.89-8.33,48.89-8.33l13.11,53.74,64.14,20.15"/><path class="cls-2" d="M41.17,83.72s-2.37-21.26.89-33.26l15-21.4c43.33-32,74.11-17,74.11-17"/><path class="cls-3" d="M57.06,29.06S44.13,37.72,30.2,55.39l11.86-4.93"/><path class="cls-2" d="M62.72,165.5s1,42.15,14.78,57.56"/><path class="cls-2" d="M59.06,239.94s-14-2.5-24.5-10.36"/><path class="cls-2" d="M6.37,155.93.84,148.2c0,2.12,4.22,23.34,4.22,23.34l.78-14.11c.16-.51.33-1,.53-1.5,4.74-12.12,20-19.61,20-19.61l1.21-.38"/></g></g></svg>